# Hand-built irregular coastal rock. Dimensions are approximately 4 x 3 x 2 m.
o coastal_rock
s 1
v -1.95 -0.65 0.00
v -1.35 -1.38 0.02
v -0.40 -1.55 -0.03
v 0.62 -1.42 0.00
v 1.62 -1.02 0.04
v 2.05 -0.18 0.00
v 1.72 0.82 -0.02
v 0.72 1.42 0.03
v -0.48 1.52 0.00
v -1.62 0.92 0.02
v -1.62 -0.48 0.58
v -1.12 -1.08 0.72
v -0.28 -1.20 0.63
v 0.62 -1.10 0.78
v 1.42 -0.68 0.62
v 1.62 0.02 0.72
v 1.30 0.74 0.66
v 0.52 1.08 0.82
v -0.42 1.18 0.68
v -1.35 0.62 0.76
v -1.02 -0.34 1.24
v -0.62 -0.82 1.38
v 0.08 -0.92 1.25
v 0.72 -0.62 1.48
v 1.05 -0.02 1.28
v 0.82 0.54 1.42
v 0.15 0.82 1.56
v -0.58 0.68 1.34
v -0.42 -0.26 1.86
v 0.10 -0.48 1.98
v 0.48 -0.06 1.82
v 0.02 0.35 1.92
f 1 2 12 11
f 2 3 13 12
f 3 4 14 13
f 4 5 15 14
f 5 6 16 15
f 6 7 17 16
f 7 8 18 17
f 8 9 19 18
f 9 10 20 19
f 10 1 11 20
f 11 12 22 21
f 12 13 23 22
f 13 14 24 23
f 14 15 25 24
f 15 16 25
f 16 17 26 25
f 17 18 27 26
f 18 19 28 27
f 19 20 28
f 20 11 21 28
f 21 22 30 29
f 22 23 30
f 23 24 31 30
f 24 25 31
f 25 26 32 31
f 26 27 32
f 27 28 29 32
f 28 21 29
f 29 30 31 32
f 10 9 8 7 6 5 4 3 2 1
